<?xml version="1.0" encoding="UTF-8"?>
<svg viewBox="0 0 359.43045 563.16132" xmlns="http://www.w3.org/2000/svg" xmlns:xlink="http://www.w3.org/1999/xlink">
 <defs>
  <linearGradient id="c">
   <stop stop-color="#a5a5a5" offset="0"/>
   <stop offset="1"/>
  </linearGradient>
  <linearGradient id="b">
   <stop stop-color="#ccc" offset="0"/>
   <stop stop-color="#fff" offset="1"/>
  </linearGradient>
  <linearGradient id="s" x1="1463.9" x2="1476.7" gradientUnits="userSpaceOnUse">
   <stop stop-color="#ffb142" offset="0"/>
   <stop stop-color="#c87600" offset="1"/>
  </linearGradient>
  <linearGradient id="r" x1="990.99" x2="991.81" y1="237.27" y2="232.99" gradientTransform="matrix(1.542 2.9531 -2.9531 1.542 478.83 -2832.4)" gradientUnits="userSpaceOnUse">
   <stop offset="0"/>
   <stop stop-opacity="0" offset="1"/>
  </linearGradient>
  <linearGradient id="q" x1="258.5" x2="258.81" y1="470.62" y2="462.06" gradientUnits="userSpaceOnUse">
   <stop stop-color="#cccbca" offset="0"/>
   <stop stop-color="#fff" stop-opacity="0" offset="1"/>
  </linearGradient>
  <linearGradient id="j" x1="461.1" x2="471.78" gradientTransform="matrix(1.5081 -.1642 .16283 1.4955 767.79 -318.13)" gradientUnits="userSpaceOnUse">
   <stop stop-color="#d40000" offset="0"/>
   <stop stop-color="#710e0e" offset="1"/>
  </linearGradient>
  <linearGradient id="i" x2="0" y1="493.68" y2="517.77" gradientTransform="matrix(1.192 -.12979 .12979 1.192 906.9 -173.68)" gradientUnits="userSpaceOnUse">
   <stop stop-color="#d50e00" offset="0"/>
   <stop stop-color="#9f0c02" offset="1"/>
  </linearGradient>
  <linearGradient id="h" x1="489.99" x2="486.76" y1="498" y2="517.44" gradientTransform="matrix(1.192 -.12979 .12979 1.192 906.9 -173.68)" gradientUnits="userSpaceOnUse">
   <stop stop-color="#f60" offset="0"/>
   <stop stop-color="#f60" stop-opacity="0" offset="1"/>
  </linearGradient>
  <linearGradient id="a" x2="0" y1="563.34" y2="572.36" gradientUnits="userSpaceOnUse" xlink:href="#b"/>
  <linearGradient id="p" x2="0" y1="563.34" y2="572.36" gradientTransform="matrix(.58814 -.06404 .05997 .55079 1308.4 129.4)" gradientUnits="userSpaceOnUse" xlink:href="#b"/>
  <linearGradient id="o" x2="0" y1="563.34" y2="572.36" gradientTransform="matrix(.58814 -.06404 .05997 .55079 1219.2 138.75)" gradientUnits="userSpaceOnUse" xlink:href="#b"/>
  <linearGradient id="n" x2="0" y1="563.34" y2="572.36" gradientTransform="matrix(.58814 -.06404 .05997 .55079 1246.7 125.73)" gradientUnits="userSpaceOnUse" xlink:href="#b"/>
  <linearGradient id="m" x2="0" y1="563.34" y2="572.36" gradientTransform="matrix(.58814 -.06404 .05997 .55079 1278.7 122.99)" gradientUnits="userSpaceOnUse" xlink:href="#b"/>
  <linearGradient id="l" x2="0" y1="563.34" y2="572.36" gradientTransform="matrix(.58814 -.06404 .05997 .55079 1244.8 145.61)" gradientUnits="userSpaceOnUse" xlink:href="#b"/>
  <linearGradient id="k" x2="0" y1="563.34" y2="572.36" gradientTransform="matrix(.58814 -.06404 .05997 .55079 1283.4 142.15)" gradientUnits="userSpaceOnUse" xlink:href="#b"/>
  <radialGradient id="g" cx="414.68" cy="-8.8805" r="123.55" gradientTransform="matrix(-5.6045e-6 .95778 -1.8729 1.2051e-8 1454.5 -86.379)" gradientUnits="userSpaceOnUse">
   <stop stop-color="#ffb142" offset="0"/>
   <stop stop-color="#ffb141" offset=".8868"/>
   <stop stop-color="#c87600" offset="1"/>
  </radialGradient>
  <radialGradient id="f" cx="488.95" cy="582.85" r="167.56" gradientTransform="matrix(0 -1.5851 1.2744 -4.1228e-6 687.01 878.23)" gradientUnits="userSpaceOnUse" xlink:href="#c"/>
  <radialGradient id="e" cx="441.42" cy="734.65" r="59.255" gradientTransform="matrix(-1.6166 1.6104 -3.9228 -3.938 4772.7 2356.6)" gradientUnits="userSpaceOnUse" xlink:href="#c"/>
  <radialGradient id="d" cx="286.32" cy="688.9" r="59.255" gradientTransform="matrix(1.4619 -1.752 -4.0043 -3.3413 3754.9 3020.1)" gradientUnits="userSpaceOnUse" xlink:href="#c"/>
 </defs>
 <g transform="translate(-554.88 21.897)">
  <g transform="translate(-734.01 -52)">
   <path d="m1437.7 525.97c-46.231 5.3018-99.256 46.978-78.18 56.067s82.246 12.88 93.804 2.2761c5.9391-5.4488 16.565-19.095 17.817-31.899 1.254 12.804 11.849 26.451 17.787 31.899 11.558 10.604 72.758 6.8126 93.834-2.2761s-31.949-50.765-78.18-56.067c-23.806 2.5562-32.368 11.467-33.441 21.69-1.0727-10.223-9.6353-19.134-33.441-21.69z" fill="url(#g)" fill-rule="evenodd" stroke="#000" stroke-width="5.0741"/>
   <path d="m1437.7 525.98c-22.691 2.6022-46.998 13.968-63.397 25.941 24.837 12.797 55.205 20.683 88.125 21.59 4.2183-6.1829 7.9971-13.764 8.7134-21.088 0.7105 7.255 4.4008 14.769 8.5631 20.92 32.379-1.5272 62.117-9.7962 86.322-22.828-16.34-11.451-39.634-22.034-61.444-24.535-23.806 2.5562-32.368 11.467-33.441 21.69-1.0728-10.223-9.6354-19.134-33.441-21.69z" fill-opacity=".3137" fill-rule="evenodd"/>
   <path d="m1628 377a159.19 177.34 0 0 1 -318.37 0 159.19 177.34 0 1 1 318.37 0z" fill="url(#f)" stroke="#000" stroke-linecap="round" stroke-width="5.0741"/>
   <path d="m1436.1 258.99c-22.051 0-39.961 22.958-39.961 51.246s17.91 51.246 39.961 51.246c12.959 0 24.458-7.9376 31.759-20.217 7.2996 12.289 18.824 20.217 31.789 20.217 22.051 0 39.961-22.958 39.961-51.246s-17.91-51.246-39.961-51.246c-12.963 0-24.489 7.9311-31.789 20.217-7.3004-12.277-18.802-20.217-31.759-20.217z" fill="#fff" stroke="#000" stroke-linecap="round" stroke-width="5.0741"/>
   <path d="m1547.5 465.67a77.172 85.973 0 1 1 -154.34 0 77.172 85.973 0 1 1 154.34 0z" fill="#fff" stroke="#000" stroke-linecap="round" stroke-width="5.0741"/>
   <path d="m1621.7 327.69c0.3232 4.611 0.5108 9.2552 0.5108 13.958 0 97.891-71.344 177.34-159.21 177.34-72.514 0-133.71-54.105-152.9-128.03 6.4027 91.367 75.024 163.38 158.67 163.38 87.87 0 159.21-79.446 159.21-177.34 0-17.107-2.2159-33.65-6.2796-49.305z" fill-opacity=".3137"/>
   <path d="m1469.8 347.38c-13.921 0-29.053 14.124-28.448 23.044s24.816 46.089 30.263 46.089 26.632-36.425 26.026-46.832-18.763-23.044-27.842-22.301z" fill-opacity=".3137" fill-rule="evenodd"/>
   <path d="m1460.9 319.27a9.9869 11.126 0 1 1 -19.974 0 9.9869 11.126 0 1 1 19.974 0z" stroke="#000" stroke-linecap="round" stroke-width="5.0741"/>
   <path d="m1496.6 319.27a9.9869 11.126 0 1 1 -19.974 0 9.9869 11.126 0 1 1 19.974 0z" stroke="#000" stroke-linecap="round" stroke-width="5.0741"/>
   <path d="m1467.6 338.44c-13.921 0-29.053 12.812-28.448 20.903s24.816 41.806 30.263 41.806 26.632-33.04 26.027-42.481-18.763-20.903-27.842-20.229z" fill="url(#s)" fill-rule="evenodd" stroke="#000" stroke-width="5.0741"/>
   <path d="m1430 403.81c-0.1254-0.22954-0.2723-0.45141-0.4095-0.67447-3.2918-5.3534-10.265-9.1753-14.639-9.3769-5.8323-0.26891-11.763 8.0411-13.275 16.503-0.1865 1.0436-0.3039 2.0953-0.3651 3.1421l-28.225-28.645-17.832 9.3115 0.1893 1.076-45.256 23.632 10.632 78.75c20.391 11.002 40.838 22.251 61.222 33.394l40.416-21.104 1.1165 0.8211 17.81-9.2998-3.4126-9.9378c2.6421 0.54463 5.2413 0.50417 7.6291-0.3159 11.106-3.8118 15.099-14.148 10.027-23.546-0.1637-0.30307-0.3223-0.61027-0.5045-0.9114-3.878-6.3933-19.856-11.827-30.733-14.9l-6.4901-18.904c9.3971-10.194 13.686-16.461 13.566-23.847-0.029-1.791-0.588-3.5594-1.4655-5.1663zm-11.73 8.7612c-0.3688 0.68888-0.7023 1.3291-0.9549 1.9027-1.0589 2.4045-3.0478 6.3257-4.9921 10.086l-0.7052-0.69199c0.247-1.4041 0.5606-2.6842 0.9496-3.5046 1.6912-3.5673 3.997-6.1762 5.7026-7.7918zm24.293 59.639c0.6393 1.1322 1.1622 2.3065 1.5502 3.5174-0.6613 0.33166-1.391 0.64194-2.1988 0.94754-2.3129 0.87487-5.2659 1.5465-8.3885 1.7153l-6.2382-18.148c1.5293 0.68018 2.6716 1.21 2.9565 1.4363 5.4503 2.3056 9.8033 6.0759 12.319 10.531z" stroke="#000" stroke-width="8.9292"/>
   <path d="m1357.8 393.95 16.728 75.559-53.683 28.031-10.637-78.74z" fill="#009dff"/>
   <path d="m1321.7 443.56-7.5775 3.6749 2.1469 15.832 8.2927-4.1912-2.863-15.317z" fill="url(#r)" fill-rule="evenodd"/>
   <path d="m1373.1 384.76 17.017 76.113-20.598 10.755-14.249-77.559z" fill="#0075ff"/>
   <path d="m1320.9 497.5 61.148 33.432 48.201-25.169-53.59-37.378z" fill="#008cff"/>
   <path d="m1441.4 501.35-51.53-40.35-20.196 10.546 53.898 39.114z" fill="#0064ff"/>
   <path d="m1416.5 428.84 24.855 72.508-51.53-40.35-16.779-76.238z" fill="#007cff"/>
   <path d="m1380.3 413.92 46.903 45.509 4.4993 13.386-49.432-44.123-66.166 33.563-2.1512-15.085z" fill="#ccc"/>
   <path d="m1394.3 406.43 17.783 73.21-64.254 33.239 14.681 7.9889 61.482-32.375-19.101-71.321-10.592-10.745z" fill="#ccc" fill-rule="evenodd"/>
   <path d="m1420.5 410.7s-4.9852 3.4228-7.9513 9.6792c-1.4079 2.9691-1.7903 11.827-1.7903 11.827l-2.5364 6.0392s-3.2785-3.1652-4.0236-5.2148-2.9504-12.994-2.7742-17.638 4.0447-14.792 5.5051-16.043 4.8573-5.2693 8.468-5.2038 6.4643 2.3506 7.059 3.1781 0.6538 11.526 0.6538 11.526l-2.6101 1.8507z" fill="#999" fill-rule="evenodd"/>
   <path d="m1405 438.55s2.8211 5.7165-0.318 8.0027-8.4344 1.1268-12.198 11.286c1.9746 1.7411 4.2456 1.0762 4.2456 1.0762l-0.1046 6.6467s4.9117-7.3217 7.7493-8.4699 6.5948-1.9066 6.8913-4.3126-3.5896-12.01-3.5896-12.01l-2.676-2.2192z" fill="#b3b3b3" fill-rule="evenodd"/>
   <path d="m1429.6 403.16c-3.2918-5.3534-10.272-9.1797-14.646-9.3813-5.8324-0.26891-11.753 8.0426-13.265 16.504-2.0719 11.596 4.1439 24.079 4.1439 24.079 0.1925-0.10054 1.984 9.2382 9.7129 1.0353 11.097-11.777 16.056-18.41 15.927-26.403-0.033-2.0468-0.7747-4.0497-1.8721-5.8343zm-9.3493-5.0071c4.6999 4.7181-1.1177 12.235-2.9307 16.352-2.2312 5.0669-9.4964 18.7-9.4964 18.7l-1.2111 2.6288s-0.4609-0.84662-2.8849-10.473 0.1594-18.808 0.537-19.33c3.3894-8.2596 10.077-13.662 15.986-7.8777z" fill="#ccc" fill-rule="evenodd"/>
   <path d="m1402.1 422.61s-5.5471-4.01-7.6899-6.0788-8.2923-16.389-8.2923-16.389l1.4097 8.2954-5.1554 0.30135s5.3321 10.459 7.8286 13.975c3.6833 5.1873 9.0327 4.5805 13.274 12.194 2.5443 4.5674 3.2881 7.3145 3.2881 7.3145s1.7398-8.8774-4.6628-19.613z" fill="#b3b3b3" fill-rule="evenodd"/>
   <path d="m1416.8 449.21c0.2944-1.3147-0.3439-11.598-1.4503-13.716s-6.9619-3.4738-8.9632-1.2032 0.1879 10.688 1.3948 13c1.6027 1.7826 3.2327 3.3135 5.237 4.865 1.3484-0.70408 3.0645-1.0898 3.7817-2.9451z" fill="#e6e6e6" fill-rule="evenodd"/>
   <path d="m1408.8 448.99s1.0322 7.9046 2.528 12.326 4.4353 13.463 6.269 15.107 9.9359 11.556 13.163 11.822-1.4586-9.6427-1.4586-9.6427-6.3172-3.692-8.5737-7.3908-5.4437-16.34-5.4437-16.34l-5.6514-6.153-0.8327 0.27323z" fill="#999" fill-rule="evenodd"/>
   <path d="m1410.3 449.68 4.8013 5.4589s14.022 5.6834 15.134 6.5662c7.9277 3.3535 13.557 9.7655 14.543 16.954 0 0 7.4585-4.7075 7.4132-7.2849-0.045-2.5774-2.2138-8.5982-2.2138-8.5982s-9.0677-4.9403-10.429-5.3676-20.934-6.7566-20.934-6.7566l-6.9053-1.5705-2.0936 0.0582 0.6847 0.5407z" fill="#999" fill-rule="evenodd"/>
   <path d="m1455.1 466.64c-5.8414-9.6301-39.198-17.084-41.076-17.567s-5.5397-0.78284-5.3454-0.72195c0 0 0.9625 15.333 7.2042 25.73s19.731 20.439 29.704 17.015c11.464-3.9347 15.354-14.826 9.5125-24.456zm-7.951-4.4854c2.3717 3.0452 6.1863 10.222-5.2363 14.543-7.072 2.6751-20.119 3.4095-25.766-6.1594s-6.4126-21.403-6.2182-21.342c0 1e-5 24.732 6.9865 25.576 7.3587s8.6942 2.2389 11.644 5.6005z" fill="#ccc" fill-rule="evenodd"/>
   <path d="m1546 347.32c3.5466 7.2148 4.4756 9.6561-0.3765 15.343-4.2981 5.1252-5.4926 11.184-0.9974 14.588-1.5053 0.90395-1.9387 2.5522-1.7867 4.2874l6.6821 51.216c4.7248 3.8481 19.088 1.8281 24.574-2.6756l-6.0742-51.738c-0.2037-1.8706-1.2631-3.1472-2.7416-3.3883 7.909-16.758-6.1513-29.639-19.28-27.632z"/>
   <path d="m1496.6 424.09c25.16-25.135 102.44-28.686 127.18-14.457 7.3032 3.9579 7.0383 8.6717 7.5227 16.293l3.201 50.355c0.897 9.7801-1.1545 12.148-5.399 15.773-21.632 18.135-90.546 28.076-118.3 15.029-9.7204-4.3055-10.097-10.113-11.532-19.817l-7.032-47.519c-1.1589-8.2314-0.1085-11.141 4.365-15.657z" fill="#fab7cc" stroke="#000" stroke-linecap="round" stroke-linejoin="round" stroke-width="4.9606"/>
   <path d="m1499.3 423.56c30.631-23.504 90.714-26.98 121.08-13.186 9.9279 3.4683 9.7399 12.128 9.1538 19.897-0.373 4.7445-1.0017 10.058-1.5391 15.271-3.021 18.085-9.5135 19.06-19.771 6.5207-7.1072-8.6886-16.88-3.9786-21.662 3.8642-8.1035 13.291-19.522 29.472-39.442 6.8604-4.5538-5.1693-14.666-15.844-25.222-2.5639-3.2454 3.7066-12.868 17.466-21.738 1.6489-4.7014-12.53-5.4958-19.961-6.1023-25.25-0.7607-7.7938-0.3318-8.7615 5.2417-13.062z" fill="#f2f2f2"/>
   <path transform="matrix(1.8769 -.20436 .3166 2.9078 928.32 -870.57)" d="m293.62 463.49c0 3.935-15.81 7.125-35.312 7.125s-35.312-3.19-35.312-7.125 15.81-7.125 35.312-7.125 35.312 3.19 35.312 7.125z" fill="url(#q)"/>
   <path d="m1496.6 424.09c25.16-25.135 102.44-28.686 127.18-14.457 7.3032 3.9579 7.0383 8.6717 7.5227 16.293l3.201 50.355c0.897 9.7801-1.1545 12.148-5.399 15.773-21.632 18.135-90.546 28.076-118.3 15.029-9.7204-4.3055-10.097-10.113-11.532-19.817l-7.032-47.519c-1.1589-8.2314-0.1085-11.141 4.365-15.657z" fill="none" stroke="#000" stroke-linecap="round" stroke-linejoin="round" stroke-width="4.9606"/>
   <path transform="matrix(1.0833 -.11795 .11046 1.0146 1060.7 -103.35)" d="m454.38 567.85c0 2.4902-4.3572 4.5089-9.7322 4.5089s-9.7321-2.0187-9.7321-4.5089 4.3572-4.5089 9.7321-4.5089 9.7322 2.0187 9.7322 4.5089z" fill="url(#a)"/>
   <path transform="matrix(.79683 -.08676 .08125 .74624 1204 31.539)" d="m454.38 567.85c0 2.4902-4.3572 4.5089-9.7322 4.5089s-9.7321-2.0187-9.7321-4.5089 4.3572-4.5089 9.7321-4.5089 9.7322 2.0187 9.7322 4.5089z" fill="url(#a)"/>
   <path transform="matrix(.58814 -.06404 .05997 .55079 1308.4 129.4)" d="m454.38 567.85c0 2.4902-4.3572 4.5089-9.7322 4.5089s-9.7321-2.0187-9.7321-4.5089 4.3572-4.5089 9.7321-4.5089 9.7322 2.0187 9.7322 4.5089z" fill="url(#a)"/>
   <path transform="matrix(.9759 -.10626 .10626 .9759 1149.2 -82.758)" d="m411.61 547.72c0 3.1559-2.5584 5.7143-5.7143 5.7143s-5.7143-2.5584-5.7143-5.7143 2.5584-5.7143 5.7143-5.7143 5.7143 2.5584 5.7143 5.7143z" fill="#d11c23"/>
   <path transform="matrix(.9759 -.10626 .10626 .9759 1149.8 -82.389)" d="m406.25 545.76c0 1.2328-1.0393 2.2321-2.3214 2.2321s-2.3214-0.99937-2.3214-2.2321 1.0393-2.2322 2.3214-2.2322 2.3214 0.99937 2.3214 2.2322z" fill="#fff"/>
   <path d="m1609.1 408.02c0.3353 3.0798-1.8895 5.8484-4.9694 6.1837-2.4114 0.26255-4.632-1.0444-5.6432-3.1023 5.0072 3.5804 11.689 0.26009 10.261-4.5195 0.1764 0.45139 0.2967 0.93326 0.3517 1.4381z" fill="#800000"/>
   <path d="m1609.7 413.07c0.1493 1.3716-2.2923 2.7625-5.4535 3.1067s-5.8449-0.48869-5.9942-1.8603c-0.069-0.63774 0.4212-1.2797 1.2839-1.8186 3.9605 2.0807 7.267 0.2507 8.3243-0.99255 1.0688 0.33741 1.7655 0.8849 1.8395 1.5647z" fill="url(#p)"/>
   <path transform="matrix(1.0833 -.11795 .11046 1.0146 971.43 -94.007)" d="m454.38 567.85c0 2.4902-4.3572 4.5089-9.7322 4.5089s-9.7321-2.0187-9.7321-4.5089 4.3572-4.5089 9.7321-4.5089 9.7322 2.0187 9.7322 4.5089z" fill="url(#a)"/>
   <path transform="matrix(.79683 -.08676 .08125 .74624 1114.8 40.885)" d="m454.38 567.85c0 2.4902-4.3572 4.5089-9.7322 4.5089s-9.7321-2.0187-9.7321-4.5089 4.3572-4.5089 9.7321-4.5089 9.7322 2.0187 9.7322 4.5089z" fill="url(#a)"/>
   <path transform="matrix(.58814 -.06404 .05997 .55079 1219.2 138.75)" d="m454.38 567.85c0 2.4902-4.3572 4.5089-9.7322 4.5089s-9.7321-2.0187-9.7321-4.5089 4.3572-4.5089 9.7321-4.5089 9.7322 2.0187 9.7322 4.5089z" fill="url(#a)"/>
   <path transform="matrix(.9759 -.10626 .10626 .9759 1059.9 -73.412)" d="m411.61 547.72c0 3.1559-2.5584 5.7143-5.7143 5.7143s-5.7143-2.5584-5.7143-5.7143 2.5584-5.7143 5.7143-5.7143 5.7143 2.5584 5.7143 5.7143z" fill="#d11c23"/>
   <path transform="matrix(.9759 -.10626 .10626 .9759 1060.6 -73.042)" d="m406.25 545.76c0 1.2328-1.0393 2.2321-2.3214 2.2321s-2.3214-0.99937-2.3214-2.2321 1.0393-2.2322 2.3214-2.2322 2.3214 0.99937 2.3214 2.2322z" fill="#fff"/>
   <path d="m1519.8 417.37c0.3353 3.0798-1.8895 5.8484-4.9694 6.1837-2.4114 0.26256-4.632-1.0444-5.6432-3.1023 5.0072 3.5804 11.689 0.26009 10.261-4.5195 0.1764 0.45139 0.2967 0.93326 0.3517 1.4381z" fill="#800000"/>
   <path d="m1520.5 422.42c0.1493 1.3716-2.2923 2.7625-5.4535 3.1067s-5.8449-0.48869-5.9942-1.8603c-0.07-0.63774 0.4212-1.2797 1.2839-1.8186 3.9605 2.0807 7.267 0.2507 8.3243-0.99255 1.0688 0.33741 1.7655 0.8849 1.8395 1.5647z" fill="url(#o)"/>
   <path transform="matrix(1.0833 -.11795 .11046 1.0146 998.95 -107.02)" d="m454.38 567.85c0 2.4902-4.3572 4.5089-9.7322 4.5089s-9.7321-2.0187-9.7321-4.5089 4.3572-4.5089 9.7321-4.5089 9.7322 2.0187 9.7322 4.5089z" fill="url(#a)"/>
   <path transform="matrix(.79683 -.08676 .08125 .74624 1142.3 27.87)" d="m454.38 567.85c0 2.4902-4.3572 4.5089-9.7322 4.5089s-9.7321-2.0187-9.7321-4.5089 4.3572-4.5089 9.7321-4.5089 9.7322 2.0187 9.7322 4.5089z" fill="url(#a)"/>
   <path transform="matrix(.58814 -.06404 .05997 .55079 1246.7 125.73)" d="m454.38 567.85c0 2.4902-4.3572 4.5089-9.7322 4.5089s-9.7321-2.0187-9.7321-4.5089 4.3572-4.5089 9.7321-4.5089 9.7322 2.0187 9.7322 4.5089z" fill="url(#a)"/>
   <path transform="matrix(.9759 -.10626 .10626 .9759 1087.4 -86.427)" d="m411.61 547.72c0 3.1559-2.5584 5.7143-5.7143 5.7143s-5.7143-2.5584-5.7143-5.7143 2.5584-5.7143 5.7143-5.7143 5.7143 2.5584 5.7143 5.7143z" fill="#d11c23"/>
   <path transform="matrix(.9759 -.10626 .10626 .9759 1088.1 -86.057)" d="m406.25 545.76c0 1.2328-1.0393 2.2321-2.3214 2.2321s-2.3214-0.99937-2.3214-2.2321 1.0393-2.2322 2.3214-2.2322 2.3214 0.99937 2.3214 2.2322z" fill="#fff"/>
   <path d="m1547.3 404.36c0.3353 3.0798-1.8895 5.8484-4.9694 6.1837-2.4114 0.26255-4.632-1.0444-5.6432-3.1023 5.0072 3.5804 11.689 0.26009 10.261-4.5195 0.1764 0.4514 0.2967 0.93326 0.3517 1.4381z" fill="#800000"/>
   <path d="m1548 409.41c0.1493 1.3716-2.2923 2.7625-5.4535 3.1067s-5.8449-0.48868-5.9942-1.8603c-0.07-0.63774 0.4212-1.2796 1.2839-1.8186 3.9605 2.0807 7.267 0.2507 8.3243-0.99255 1.0688 0.33741 1.7655 0.8849 1.8395 1.5647z" fill="url(#n)"/>
   <path transform="matrix(1.0833 -.11795 .11046 1.0146 1030.9 -109.76)" d="m454.38 567.85c0 2.4902-4.3572 4.5089-9.7322 4.5089s-9.7321-2.0187-9.7321-4.5089 4.3572-4.5089 9.7321-4.5089 9.7322 2.0187 9.7322 4.5089z" fill="url(#a)"/>
   <path transform="matrix(.79683 -.08676 .08125 .74624 1174.3 25.13)" d="m454.38 567.85c0 2.4902-4.3572 4.5089-9.7322 4.5089s-9.7321-2.0187-9.7321-4.5089 4.3572-4.5089 9.7321-4.5089 9.7322 2.0187 9.7322 4.5089z" fill="url(#a)"/>
   <path transform="matrix(.58814 -.06404 .05997 .55079 1278.7 122.99)" d="m454.38 567.85c0 2.4902-4.3572 4.5089-9.7322 4.5089s-9.7321-2.0187-9.7321-4.5089 4.3572-4.5089 9.7321-4.5089 9.7322 2.0187 9.7322 4.5089z" fill="url(#a)"/>
   <path transform="matrix(.9759 -.10626 .10626 .9759 1119.4 -89.167)" d="m411.61 547.72c0 3.1559-2.5584 5.7143-5.7143 5.7143s-5.7143-2.5584-5.7143-5.7143 2.5584-5.7143 5.7143-5.7143 5.7143 2.5584 5.7143 5.7143z" fill="#d11c23"/>
   <path transform="matrix(.9759 -.10626 .10626 .9759 1120.1 -88.797)" d="m406.25 545.76c0 1.2328-1.0393 2.2321-2.3214 2.2321s-2.3214-0.99937-2.3214-2.2321 1.0393-2.2322 2.3214-2.2322 2.3214 0.99937 2.3214 2.2322z" fill="#fff"/>
   <path d="m1579.3 401.62c0.3353 3.0798-1.8895 5.8484-4.9694 6.1837-2.4114 0.26255-4.632-1.0444-5.6432-3.1023 5.0072 3.5804 11.689 0.26009 10.261-4.5195 0.1764 0.4514 0.2967 0.93326 0.3517 1.4381z" fill="#800000"/>
   <path d="m1580 406.67c0.1493 1.3716-2.2923 2.7625-5.4535 3.1067s-5.8449-0.48868-5.9942-1.8603c-0.07-0.63774 0.4212-1.2796 1.2839-1.8186 3.9605 2.0807 7.267 0.25071 8.3243-0.99255 1.0688 0.33741 1.7655 0.88491 1.8395 1.5647z" fill="url(#m)"/>
   <path transform="matrix(1.0833 -.11795 .11046 1.0146 997.04 -87.148)" d="m454.38 567.85c0 2.4902-4.3572 4.5089-9.7322 4.5089s-9.7321-2.0187-9.7321-4.5089 4.3572-4.5089 9.7321-4.5089 9.7322 2.0187 9.7322 4.5089z" fill="url(#a)"/>
   <path transform="matrix(.79683 -.08676 .08125 .74624 1140.4 47.744)" d="m454.38 567.85c0 2.4902-4.3572 4.5089-9.7322 4.5089s-9.7321-2.0187-9.7321-4.5089 4.3572-4.5089 9.7321-4.5089 9.7322 2.0187 9.7322 4.5089z" fill="url(#a)"/>
   <path transform="matrix(.58814 -.06404 .05997 .55079 1244.8 145.61)" d="m454.38 567.85c0 2.4902-4.3572 4.5089-9.7322 4.5089s-9.7321-2.0187-9.7321-4.5089 4.3572-4.5089 9.7321-4.5089 9.7322 2.0187 9.7322 4.5089z" fill="url(#a)"/>
   <path transform="matrix(.9759 -.10626 .10626 .9759 1085.5 -66.553)" d="m411.61 547.72c0 3.1559-2.5584 5.7143-5.7143 5.7143s-5.7143-2.5584-5.7143-5.7143 2.5584-5.7143 5.7143-5.7143 5.7143 2.5584 5.7143 5.7143z" fill="#d11c23"/>
   <path transform="matrix(.9759 -.10626 .10626 .9759 1086.2 -66.184)" d="m406.25 545.76c0 1.2328-1.0393 2.2321-2.3214 2.2321s-2.3214-0.99937-2.3214-2.2321 1.0393-2.2322 2.3214-2.2322 2.3214 0.99937 2.3214 2.2322z" fill="#fff"/>
   <path d="m1545.4 424.23c0.3353 3.0798-1.8895 5.8484-4.9694 6.1837-2.4114 0.26256-4.632-1.0444-5.6432-3.1023 5.0072 3.5804 11.689 0.26009 10.261-4.5195 0.1764 0.45139 0.2967 0.93326 0.3517 1.4381z" fill="#800000"/>
   <path d="m1546.1 429.28c0.1493 1.3716-2.2923 2.7625-5.4535 3.1067s-5.8449-0.48869-5.9942-1.8603c-0.07-0.63774 0.4212-1.2797 1.2839-1.8186 3.9605 2.0807 7.267 0.2507 8.3243-0.99255 1.0688 0.33741 1.7655 0.8849 1.8395 1.5647z" fill="url(#l)"/>
   <path transform="matrix(1.0833 -.11795 .11046 1.0146 1035.6 -90.607)" d="m454.38 567.85c0 2.4902-4.3572 4.5089-9.7322 4.5089s-9.7321-2.0187-9.7321-4.5089 4.3572-4.5089 9.7321-4.5089 9.7322 2.0187 9.7322 4.5089z" fill="url(#a)"/>
   <path transform="matrix(.79683 -.08676 .08125 .74624 1178.9 44.286)" d="m454.38 567.85c0 2.4902-4.3572 4.5089-9.7322 4.5089s-9.7321-2.0187-9.7321-4.5089 4.3572-4.5089 9.7321-4.5089 9.7322 2.0187 9.7322 4.5089z" fill="url(#a)"/>
   <path transform="matrix(.58814 -.06404 .05997 .55079 1283.4 142.15)" d="m454.38 567.85c0 2.4902-4.3572 4.5089-9.7322 4.5089s-9.7321-2.0187-9.7321-4.5089 4.3572-4.5089 9.7321-4.5089 9.7322 2.0187 9.7322 4.5089z" fill="url(#a)"/>
   <path transform="matrix(.9759 -.10626 .10626 .9759 1124.1 -70.012)" d="m411.61 547.72c0 3.1559-2.5584 5.7143-5.7143 5.7143s-5.7143-2.5584-5.7143-5.7143 2.5584-5.7143 5.7143-5.7143 5.7143 2.5584 5.7143 5.7143z" fill="#d11c23"/>
   <path transform="matrix(.9759 -.10626 .10626 .9759 1124.8 -69.642)" d="m406.25 545.76c0 1.2328-1.0393 2.2321-2.3214 2.2321s-2.3214-0.99937-2.3214-2.2321 1.0393-2.2322 2.3214-2.2322 2.3214 0.99937 2.3214 2.2322z" fill="#fff"/>
   <path d="m1584 420.77c0.3353 3.0798-1.8895 5.8484-4.9694 6.1837-2.4114 0.26256-4.632-1.0444-5.6432-3.1023 5.0072 3.5804 11.689 0.26009 10.261-4.5195 0.1764 0.45139 0.2967 0.93326 0.3517 1.4381z" fill="#800000"/>
   <path d="m1584.7 425.82c0.1493 1.3716-2.2923 2.7625-5.4535 3.1067s-5.8449-0.48869-5.9942-1.8603c-0.07-0.63774 0.4212-1.2797 1.2839-1.8186 3.9605 2.0807 7.267 0.2507 8.3243-0.99255 1.0688 0.33741 1.7655 0.8849 1.8395 1.5647z" fill="url(#k)"/>
   <path transform="matrix(1.0775 -.11732 .08615 .79128 1229.5 311.21)" d="m301.58 183.15c0 3.1242-4.1749 5.6568-9.325 5.6568s-9.325-2.5327-9.325-5.6568 4.1749-5.6569 9.325-5.6569 9.325 2.5327 9.325 5.6569z" fill="#ccc"/>
   <path d="m1547.7 380.33 15.665-1.7056 4.5543 41.829c-3.4199 3.6054-12.562 4.9783-15.665 1.7056l-4.5543-41.829z" fill="url(#j)"/>
   <path d="m1548.2 378.84 16.48 10.959 0.4848 4.4523-17.285-11.497z" fill="#f9f9f9"/>
   <path d="m1548.3 389.46 17.31 11.061 0.4848 4.4523-17.202-11.169z" fill="#f9f9f9"/>
   <path d="m1550.5 401.25 17.31 11.061 0.4848 4.4523-17.202-11.169z" fill="#f9f9f9"/>
   <path d="m1551.4 411.75 15.109 9.6547-3.6241 1.7617-10.892-7.0722z" fill="#f9f9f9"/>
   <path d="m1557.1 374.52 6.3855 4.5412 0.4848 4.4523-7.1909-5.0799z" fill="#f9f9f9"/>
   <path d="m1547.7 380.33 15.665-1.7056 4.5544 41.829c-3.4199 3.6054-12.562 4.9783-15.665 1.7056l-4.5544-41.829z" fill="none" stroke="#602222" stroke-width=".75436"/>
   <path transform="matrix(1.5372 -.16737 .18791 1.7259 741.05 -437.73)" d="m471.51 518.36c0 0.9275-2.2754 1.6794-5.0823 1.6794s-5.0823-0.75188-5.0823-1.6794 2.2754-1.6794 5.0823-1.6794 5.0823 0.75189 5.0823 1.6794z" fill="#f9f9f9" stroke="#602222" stroke-width=".50937"/>
   <path d="m1551.5 351.83c7.8165 2.522 14.511 6.2501 10.304 21.692-4.4681 12.129-16.437 5.1673-15.596-3.4526 0.1836-2.8004 1.8323-4.6372 3.6371-6.5472 4.5498-5.1101 3.4552-8.3023 1.6551-11.693z" fill="url(#i)"/>
   <path d="m1555.1 368.14c3.0704 1.5455 6.0784 3.4161 3.4627 9.5611-2.3668 4.4401-6.9394 1.6467-6.7836-1.629 0.1173-1.6113 1.073-2.5219 2.2621-3.4401 1.8459-1.7068 1.5788-3.0417 1.0588-4.4919z" fill="#ffe513"/>
   <path d="m1555.6 356.52c5.9489 3.0572 6.3433 7.3523 6.3881 11.97 0.087 8.9086-9.1659 16.674-12.538 7.2993-1.018-2.696-0.696-5.6238 0.6637-8.0458 0.8816-1.53 2.0436-2.9178 3.1861-4.3375 2.1029-2.7468 2.5822-4.6565 2.3006-6.8862z" fill="url(#h)"/>
   <path d="m1392.2 37.931c-2.4731 0.53749-4.8406 1.2654-7.0123 2.3147 0.6084 9.1215 5.0619 18.11 11.077 27.034-19.483-10.179-14.902-32.667-30.726-16.347-0.2927 20.266 16.098 25.846 31.486 32.328-14.721 49.018-23.206 101.97-31.326 155.16 33.754 25.916 101.1 18.212 143.74-27.999-30.325-43.895-62.338-87.111-97.474-129.09 0.1868-0.16391 0.3795-0.30292 0.5648-0.47492 10.474-7.0524 18.853-10.127 20.03-35.685-0.2258-6.2054-4.7408-10.018-15.463-7.4971 2.3647 14.204-1.8233 24.289-11.933 30.604-3.8782-8.4649-5.4985-17.376-1.9486-27.289 1.527-3.7848 2.7538-4.7417-1.562-4.3684-3.2411 0.28155-6.4363 0.64936-9.4516 1.3047z" stroke="#000" stroke-linecap="round" stroke-linejoin="round" stroke-width="12.896"/>
   <path d="m1365.7 238.43c33.754 25.916 101.12 18.209 143.75-28.002-33.305-48.209-68.678-95.594-107.95-141.43-17.562 52.918-26.892 111.04-35.805 169.43z" fill="#d700d7"/>
   <path d="m1397.7 80.737c-0.9893 3.2378-2.0118 6.4402-2.947 9.7121 9.3159 5.4296 20.406 10.217 33.214 10.283-2.891-3.5776-5.9552-7.0611-8.8882-10.622-7.4873-1.2871-14.236-4.8119-21.378-9.3736zm-5.6577 19.717c-1.0719 4.006-2.0168 8.046-3.0199 12.095 16.411 17.603 46.923 11.516 57.102 11.384l-0.064-0.32606c-2.6812-3.449-5.3853-6.8325-8.1016-10.268-18.643-0.31911-34.379-0.50648-45.917-12.886zm-6.0218 25.203c-0.8515 3.721-1.8558 7.4289-2.6607 11.179 26.726 14.999 53.5 12.827 80.341 10.072-2.4318-3.2429-4.824-6.5181-7.2833-9.75-26.145 3.3448-50.256 1.2172-70.397-11.502zm-5.2079 23.86c-0.7722 3.851-1.4856 7.726-2.2196 11.601 29.532 14.799 72.627 14.033 101.42 7.8268-2.1846-3.0057-4.4001-6.0386-6.6058-9.0359-28.158 6.4354-67.75 3.1739-92.6-10.392zm-4.4712 23.039c-0.7526 4.1818-1.4816 8.4106-2.2015 12.613 31.72 18.896 89.572 16.351 121.17 5.1648-2.0987-2.9678-4.1115-5.9795-6.2285-8.9402-30.446 9.9711-84.602 8.0138-112.74-8.8376zm-4.617 27.806c-0.6822 4.1828-1.3656 8.3844-2.0288 12.579 34.195 18.231 101.72 14.452 136.01 1.2585 1.2564-1.2569 2.5294-2.4563 3.7469-3.7759-1.5487-2.2417-3.1568-4.4586-4.7146-6.6967-31.417 14.622-100.38 14.717-133.02-3.3653zm-4.0713 26.007c-0.6223 4.0293-1.3357 8.0232-1.9515 12.057 0.1889 0.14514 0.4228 0.24525 0.6138 0.38783 24.145 9.6008 58.654 13.233 89.59 6.9169 9.8876-3.5249 19.667-8.312 28.928-14.435-33.974 9.064-85.922 9.774-117.18-4.9271z" fill="#58e2e2"/>
   <path d="m1397.5 83.456c-14.602-6.179-30.284-11.409-31.842-29.055-0.6996-3.1851 0.9642-4.7313 3.2625-6.7212 0.9512-0.82004 1.8251-1.4914 2.6486-2.0659 4.3349-2.8605 3.3873-0.74405 6.2168 2.3258 2.438 5.6965 8.8194 13.795 14.813 17.585 4.7935 2.8618 3.1788 1.1035 1.346-1.8418-4.0066-6.4498-7.0401-12.935-8.2457-19.487-0.8669-3.3094-0.3047-4.2352 2.7899-5.2654 4.1057-1.3567 8.6802-1.9173 13.352-2.3136 3.0482 0.04028 2.8733 0.52488 1.7883 3.2593-3.5553 9.009-2.8058 17.179 0.094 24.931 1.0455 3.9762 2.3514 3.132 5.0449 0.85718 6.6751-5.6716 9.7032-13.649 8.807-24.108-0.2228-3.366-0.4455-4.0028 2.9555-4.4563 5.8646-0.56333 8.5005 1.7817 10.347 4.8378 1.4221 1.9556 1.6657 3.652 1.5312 5.8112-1.614 23.192-8.7835 26.471-18.893 33.278-5.1636 3.7626-10.274 4.3812-16.015 2.4295z" fill="#fc0"/>
   <path d="m1344.6 353.74c48.111 17.3-14.164 94.143 37.819 161.19 9.6084 12.393-57.868 2.0908-81.723-66.585-23.198-66.786-1.1323-107.54 43.904-94.607z" fill="#fff" fill-rule="evenodd" stroke="#000" stroke-width="5"/>
   <path d="m1344.6 353.74c48.111 17.3-42.588 102.12 37.819 161.19 22.626 16.622-57.868 2.0908-81.723-66.585-23.198-66.786-1.1323-107.54 43.904-94.607z" fill="url(#e)" fill-rule="evenodd" stroke="#000" stroke-width="5"/>
   <path d="m1592.6 353.74c-48.111 17.3 14.163 94.143-37.819 161.19-9.6084 12.393 57.868 2.0908 81.723-66.585 23.198-66.786 1.1324-107.54-43.904-94.607z" fill="#fff" fill-rule="evenodd" stroke="#000" stroke-width="5"/>
   <path d="m1592.6 353.74c-48.111 17.3 42.588 102.12-37.819 161.19-22.626 16.622 57.868 2.0908 81.723-66.585 23.198-66.786 1.1324-107.54-43.904-94.607z" fill="url(#d)" fill-rule="evenodd" stroke="#000" stroke-width="5"/>
  </g>
 </g>
</svg>
